# xmcd CD database file
#
# Track frame offsets:
#	183
#	10683
#	27858
#	47725
#	59113
#	73530
#	90093
#	107128
#	119513
#	140875
#	154318
#	167423
#	189120
#	202585
#	217760
#	235705
#
# Disc length: 3359 seconds
#
# Revision: 3
# Processed by: cddbd v1.5.2PL0 Copyright (c) Steve Scherf et al.
# Submitted via: CDex 1.70beta2
#
DISCID=cb0d1d10
DTITLE=Yehudi Menuhin and Stephane Grappelli - Menuhin and Grappelli Play Gershwin
DYEAR=1988
DGENRE=Jazz
TTITLE0=Fascinating rhythm
TTITLE1=Soon
TTITLE2=Summertime
TTITLE3=Nice work if you can get it
TTITLE4=Embraceable you
TTITLE5=Liza
TTITLE6=A foggy day
TTITLE7=S'Wonderful
TTITLE8=The man I love
TTITLE9=I got rhythm
TTITLE10=He loves and she loves
TTITLE11=They can't take that away from me
TTITLE12=They all laughed
TTITLE13=Funny face
TTITLE14=Love is here to stay
TTITLE15=Lady be good
EXTD=YEAR: 1988
EXTT0=
EXTT1=
EXTT2=
EXTT3=
EXTT4=
EXTT5=\n
EXTT6=
EXTT7=
EXTT8=
EXTT9=
EXTT10=
EXTT11=
EXTT12=
EXTT13=
EXTT14=
EXTT15=
PLAYORDER=
